OFF
56 55 0
-0.497381 -1.99986 -1.93717
0.125333 -2 0.992115
0 -1.99997 0
0 -1.99995 0
0 -1.99997 0
0 -1.99997 0
-7.97984e-07 -1.99985 -1.41421
0 -1.99997 0
-0.351702 -1.99986 -1.36978
-0.844328 -1.99974 -0.535826
0.904827 -1.99999 0.425779
-0.125334 -1.99982 -0.992115
0.998027 -2 -0.0627906
0 -1.99997 0
0 -1.99969 0
0.248689 -1.99999 -0.968583
0.951056 -2 -0.309017
0.770513 -1.99999 0.637424
0 -1.9996 0
0.587785 -1.99999 0.809017
-0.951057 -1.99984 -0.309016
0.368125 -1.99999 0.929776
-0.770512 -1.99996 0.637425
-0.368123 -1.99997 0.929777
0 -1.99997 0
0 -1.99983 0
-0.684548 -1.9997 -0.728968
-0.587784 -1.99956 0.809018
0 -1.9998 0
-0.125332 -1.99992 0.992115
0 -1.9998 0
0 -1.99998 0
0.481753 -1.99986 -0.876307
0 -1.99949 0
-0.904827 -1.99996 0.42578
0 -1.99967 0
0.982287 -2 0.187381
0 -1.9998 0
0 -1.99972 0
0 -1.99997 0
0 -1.9996 0
0 -1.99974 0
-0.351702 -1.99984 -1.36978
0 2 0
0 -2 0
0 -1.99981 0
0 -1.99996 0
-0.982287 -1.99982 0.187382
-0.998027 -1.9998 -0.0627896
0.684547 -1.99997 -0.728969
0 -1.99951 0
-0.125334 -1.99989 -0.992115
-0.481754 -1.99973 -0.876306
0.844328 -1.99999 -0.535827
-0.125334 -1.99983 -0.992115
0 -1.99996 0
2 22 28 0.000168071 0.000630299 MINIMUM SADDLE 0 0.000462228 2 0 2 1 1 20951 248457 O
2 39 55 0.000160562 0.000167475 SADDLE SADDLE 1 6.913e-06 9710 0 9710 1 1 23041 189218 O
2 30 37 0.000632086 0.000635541 SADDLE SADDLE 2 3.45492e-06 70 0 43 0.614286 0.614286 24880 248476 O
2 2 24 0.000136009 0.000136366 SADDLE SADDLE 3 3.57584e-07 388 0 388 1 1 35817 7845 O
2 5 7 0.000143518 0.000148881 SADDLE SADDLE 4 5.36363e-06 7444 0 7444 1 1 39559 210039 O
2 27 50 0.00135021 0.00148175 MINIMUM SADDLE 5 0.00013154 1 5 1 1 1 55763 90492 B-LOC
2 29 33 0.000293331 0.00153531 MINIMUM SADDLE 6 0.00124198 45 5 30 0.666667 0.666667 64169 237100 B-LOC
2 31 2 0.000131241 0.000136009 SADDLE SADDLE 7 4.76773e-06 5693 0 5693 1 1 74673 35817 O
2 44 31 6.19869e-05 0.000131241 MINIMUM SADDLE 8 6.92539e-05 59751 0 59751 1 1 81958 74673 O
2 50 33 0.00148175 0.00153531 SADDLE SADDLE 9 5.35634e-05 859 1 208 0.242142 0.242142 90492 237100 B-PER
2 23 18 0.000145544 0.00123603 MINIMUM SADDLE 10 0.00109049 48 5 33 0.6875 0.6875 94947 231062 B-LOC
2 7 13 0.000148881 0.000158059 SADDLE SADDLE 11 9.17772e-06 12807 0 12807 1 1 210039 133688 O
2 46 3 0.000174984 0.000198345 SADDLE SADDLE 12 2.33607e-05 25772 0 25772 1 1 132443 224212 O
2 13 39 0.000158059 0.000160562 SADDLE SADDLE 13 2.50299e-06 3413 0 3413 1 1 133688 23041 O
2 4 5 0.000142922 0.000143518 SADDLE SADDLE 14 5.95959e-07 731 0 731 1 1 153107 39559 O
2 51 54 0.000370553 0.000542017 MINIMUM SADDLE 15 0.000171464 1 0 1 1 1 158113 242790 O
2 55 46 0.000167475 0.000174984 SADDLE SADDLE 16 7.5089e-06 9738 0 9738 1 1 189218 132443 O
2 14 35 0.000969774 0.00100657 SADDLE SADDLE 17 3.67993e-05 540 0 121 0.224074 0.224074 208332 253551 O
2 36 5 7.4503e-05 0.000143518 MINIMUM SADDLE 18 6.90146e-05 34 0 34 1 1 208651 39559 O
2 12 39 7.46222e-05 0.000160562 MINIMUM SADDLE 19 8.59398e-05 5 0 5 1 1 209903 23041 O
2 37 41 0.000635541 0.00080958 SADDLE SADDLE 20 0.000174039 2656 0 1542 0.580572 0.580572 248476 218056 O
2 25 45 0.000544757 0.000613025 SADDLE SADDLE 21 6.82674e-05 1415 0 1028 0.726502 0.726502 230865 254533 O
2 17 4 8.11782e-05 0.000142922 MINIMUM SADDLE 22 6.17435e-05 8 0 8 1 1 214188 153107 O
2 48 41 0.000637805 0.00080958 MINIMUM SADDLE 23 0.000171775 2 1 1 0.5 0.5 214322 218056 B-PER
2 20 37 0.000539038 0.000635541 MINIMUM SADDLE 24 9.65028e-05 4 5 4 1 1 216562 248476 B-LOC
2 41 38 0.00080958 0.000886762 SADDLE SADDLE 25 7.71821e-05 1115 0 416 0.373094 0.373094 218056 218626 O
2 49 3 0.000138035 0.000198345 MINIMUM SADDLE 26 6.03098e-05 6 0 6 1 1 223596 224212 O
2 53 55 7.90326e-05 0.000167475 MINIMUM SADDLE 27 8.84424e-05 154 0 154 1 1 225376 189218 O
2 47 14 0.000577879 0.000969774 MINIMUM SADDLE 28 0.000391895 4 7 3 0.75 0.75 225414 208332 B-MISC
2 40 18 0.00120865 0.00123603 SADDLE SADDLE 29 2.73847e-05 425 3 106 0.249412 0.249412 227181 231062 B-ORG
2 32 25 0.000456825 0.000544757 MINIMUM SADDLE 30 8.79324e-05 11 3 11 1 1 227247 230865 B-ORG
2 34 30 0.000190359 0.000632086 MINIMUM SADDLE 31 0.000441727 7 0 7 1 1 228663 24880 O
2 8 42 0.000469813 0.000525217 MINIMUM SADDLE 32 5.54048e-05 11 5 11 1 1 228683 237954 B-LOC
2 16 13 6.99734e-05 0.000158059 MINIMUM SADDLE 33 8.80856e-05 1162 0 1162 1 1 228719 133688 O
2 18 50 0.00123603 0.00148175 SADDLE SADDLE 34 0.000245714 4140 1 968 0.233816 0.233816 231062 90492 B-PER
2 26 40 0.000935713 0.00120865 MINIMUM SADDLE 35 0.000272935 3 7 3 1 1 231219 227181 B-MISC
2 21 24 8.20126e-05 0.000136366 MINIMUM SADDLE 36 5.43535e-05 3 0 3 1 1 232407 7845 O
2 45 28 0.000613025 0.000630299 SADDLE SADDLE 37 1.72746e-05 334 0 205 0.613772 0.613772 254533 248457 O
2 33 43 0.00153531 11.5991 SADDLE MAXIMUM 38 11.5976 33711 5 6053 0.179556 0.179556 237100 219074 B-LOC
2 42 54 0.000525217 0.000542017 SADDLE SADDLE 39 1.67995e-05 32 5 32 1 1 237954 242790 B-LOC
2 15 46 8.01054e-05 0.000174984 MINIMUM SADDLE 40 9.48785e-05 52 0 52 1 1 239275 132443 O
2 0 42 0.000471242 0.000525217 MINIMUM SADDLE 41 5.39749e-05 4 5 4 1 1 239624 237954 B-LOC
2 35 40 0.00100657 0.00120865 SADDLE SADDLE 42 0.000202074 3454 1 824 0.238564 0.238564 253551 227181 B-PER
2 1 31 7.36686e-05 0.000131241 MINIMUM SADDLE 43 5.75722e-05 26 0 26 1 1 241808 74673 O
2 6 11 0.000506392 0.000576926 MINIMUM SADDLE 44 7.05337e-05 1 5 1 1 1 245746 249669 B-LOC
2 19 2 7.71254e-05 0.000136009 MINIMUM SADDLE 45 5.88831e-05 30 0 30 1 1 246534 35817 O
2 10 7 9.48861e-05 0.000148881 MINIMUM SADDLE 46 5.39952e-05 4 0 4 1 1 248017 210039 O
2 24 4 0.000136366 0.000142922 SADDLE SADDLE 47 6.55559e-06 8776 0 8776 1 1 7845 153107 O
2 28 30 0.000630299 0.000632086 SADDLE SADDLE 48 1.78698e-06 27 0 17 0.62963 0.62963 248457 24880 O
2 11 45 0.000576926 0.000613025 SADDLE SADDLE 49 3.60989e-05 73 5 73 1 1 249669 254533 B-LOC
2 3 25 0.000198345 0.000544757 SADDLE SADDLE 50 0.000346413 58907 0 58510 0.993261 0.993261 224212 230865 O
2 54 11 0.000542017 0.000576926 SADDLE SADDLE 51 3.49088e-05 68 5 68 1 1 242790 249669 B-LOC
2 38 14 0.000886762 0.000969774 SADDLE SADDLE 52 8.30118e-05 1300 0 374 0.287692 0.287692 218626 208332 O
2 9 38 0.000810057 0.000886762 MINIMUM SADDLE 53 7.67056e-05 4 1 4 1 1 254195 218626 B-PER
2 52 35 0.000836976 0.00100657 MINIMUM SADDLE 54 0.000169598 2 5 2 1 1 254814 253551 B-LOC
