OFF
18 17 0
0 -1.99008 0
0.382683 -1.99973 0.92388
0.92388 -1.99987 0.382683
0 -1.98502 0
0 -2 0
0 -1.98631 0
0 2 0
0 -1.94802 0
-0.923879 -1.99987 0.382684
-0.382683 -1.99977 0.92388
0 -1.98344 0
0 -1.97988 0
-0.92388 -1.99965 -0.382683
-0.382683 -1.99986 -0.92388
0.382683 -1.99954 -0.92388
0 -1.98456 0
0 -1.98111 0
0.92388 -1.99974 -0.382684
2 3 15 0.0435125 0.0448228 SADDLE SADDLE 0 0.00131031 15 7 6 0.4 0.4 71322 81839 B-MISC
2 15 10 0.0448228 0.0480911 SADDLE SADDLE 1 0.00326827 64 0 20 0.3125 0.3125 81839 245879 O
2 4 0 6.19869e-05 0.0288174 MINIMUM SADDLE 2 0.0287554 211623 0 211623 1 1 81958 237172 O
2 1 0 0.000847934 0.0288174 MINIMUM SADDLE 3 0.0279695 4047 4 4047 1 1 203717 237172 I-ORG
2 16 11 0.0548447 0.0584191 SADDLE SADDLE 4 0.00357436 58 0 13 0.224138 0.224138 205246 224662 O
2 2 5 0.000438475 0.0397559 MINIMUM SADDLE 5 0.0393175 7286 3 7286 1 1 212473 212839 B-ORG
2 5 3 0.0397559 0.0435125 SADDLE SADDLE 6 0.00375656 56 0 29 0.517857 0.517857 212839 71322 O
2 12 16 0.00108374 0.0548447 MINIMUM SADDLE 7 0.053761 1267 8 1267 1 1 215263 205246 I-MISC
2 8 11 0.000443718 0.0584191 MINIMUM SADDLE 8 0.0579754 8317 1 8317 1 1 224039 224662 B-PER
2 11 7 0.0584191 0.150784 SADDLE SADDLE 9 0.0923647 707 0 155 0.219236 0.219236 224662 238926 O
2 9 7 0.000731677 0.150784 MINIMUM SADDLE 10 0.150052 5796 2 5796 1 1 226536 238926 I-PER
2 13 10 0.000469813 0.0480911 MINIMUM SADDLE 11 0.0476213 8697 5 8697 1 1 228683 245879 B-LOC
2 14 15 0.00138425 0.0448228 MINIMUM SADDLE 12 0.0434386 1302 6 1302 1 1 231063 81839 I-LOC
2 17 3 0.000809937 0.0435125 MINIMUM SADDLE 13 0.0427026 3977 7 3977 1 1 233782 71322 B-MISC
2 0 5 0.0288174 0.0397559 SADDLE SADDLE 14 0.0109385 149 0 76 0.510067 0.510067 237172 212839 O
2 7 6 0.150784 11.5991 SADDLE MAXIMUM 15 11.4483 1506 0 390 0.258964 0.258964 238926 219074 O
2 10 16 0.0480911 0.0548447 SADDLE SADDLE 16 0.00675365 116 0 29 0.25 0.25 245879 205246 O
