OFF
22 21 0
1.30656 -1.41304 -0.541196
0 -1.39044 0
0 -1.38777 0
0.382683 -1.41346 0.92388
0 -1.41421 0
-0.541196 -1.41216 -1.30656
-0.382683 -1.34658 0.92388
0.92388 -1.413 -0.382684
0 1.41421 0
0 -1.37371 0
0 -1.38036 0
0.92388 -1.41311 -0.382684
0 -1.22173 0
-0.382683 -1.41373 -0.92388
0 -1.38037 0
0.92388 -1.41244 0.382683
-0.382683 -1.38434 -0.92388
0 -1.38353 0
-0.923879 -1.41362 0.382684
-0.92388 -1.41257 -0.382683
0 -1.38409 0
0.382683 -1.40999 -0.92388
2 12 8 0.649006 9.5335 SADDLE MAXIMUM 0 8.88449 30910 0 17015 0.550469 0.550469 3774 224342 O
2 10 9 0.114346 0.136747 SADDLE SADDLE 1 0.0224014 1879 0 1271 0.676424 0.676424 5357 244323 O
2 14 10 0.114316 0.114346 SADDLE SADDLE 2 2.91318e-05 3 0 3 1 1 63691 5357 O
2 6 12 0.228206 0.649006 MINIMUM SADDLE 3 0.4208 3 0 3 1 1 190398 3774 O
2 21 14 0.0144588 0.114316 MINIMUM SADDLE 4 0.0998577 287 8 287 1 1 206785 63691 I-MISC
2 16 20 0.100911 0.10177 SADDLE SADDLE 5 0.000858746 9 5 7 0.777778 0.777778 207677 226041 B-LOC
2 19 10 0.00578503 0.114346 MINIMUM SADDLE 6 0.108561 1463 4 1463 1 1 208860 5357 I-ORG
2 7 17 0.00432853 0.103642 SADDLE SADDLE 7 0.0993131 3398 3 3398 1 1 210103 223511 B-ORG
2 11 7 0.00396692 0.00432853 MINIMUM SADDLE 8 0.000361608 1 3 1 1 1 212473 210103 B-ORG
2 18 9 0.00221829 0.136747 MINIMUM SADDLE 9 0.134529 5762 1 5762 1 1 218117 244323 B-PER
2 3 1 0.00276624 0.0803477 MINIMUM SADDLE 10 0.0775815 3772 2 3772 1 1 218118 233696 I-PER
2 13 16 0.00186294 0.100911 MINIMUM SADDLE 11 0.0990483 5091 5 5091 1 1 223006 207677 B-LOC
2 17 14 0.103642 0.114316 SADDLE SADDLE 12 0.0106749 1000 0 715 0.715 0.715 223511 63691 O
2 0 7 0.00417825 0.00432853 MINIMUM SADDLE 13 0.000150278 3 3 3 1 1 223937 210103 B-ORG
2 15 2 0.00620617 0.089363 MINIMUM SADDLE 14 0.0831568 1567 7 1567 1 1 224468 231289 B-MISC
2 20 17 0.10177 0.103642 SADDLE SADDLE 15 0.00187168 168 0 131 0.779762 0.779762 226041 223511 O
2 5 16 0.0071632 0.100911 MINIMUM SADDLE 16 0.093748 445 6 444 0.997753 0.997753 230969 207677 I-LOC
2 2 20 0.089363 0.10177 SADDLE SADDLE 17 0.012407 1015 0 901 0.887685 0.887685 231289 226041 O
2 1 2 0.0803477 0.089363 SADDLE SADDLE 18 0.00901525 711 0 660 0.92827 0.92827 233696 231289 O
2 9 12 0.136747 0.649006 SADDLE SADDLE 19 0.512259 14842 0 8984 0.605309 0.605309 244323 3774 O
2 4 1 0.000233265 0.0803477 MINIMUM SADDLE 20 0.0801145 182654 0 182654 1 1 248742 233696 O
