OFF
56 55 0
0 -1.99971 0
0 -1.99911 0
0 -1.99966 0
0 -1.99974 0
-0.448799 -1.99715 -0.893633
0 -1.99948 0
0.918216 -1.99975 -0.39608
0.116093 -1.99992 0.993238
0 -1.99968 0
0 -1.99689 0
0.866025 -1.99997 0.5
0.549509 -1.99989 0.835488
0 -1.99806 0
0.95799 -1.99932 0.286803
-0.802123 -1.99836 -0.597158
0 -1.99921 0
0 -1.99942 0
0.802123 -1.9998 -0.597159
0 -1.99933 0
0.984808 -1.99973 -0.173648
-0.984808 -1.99821 -0.173648
0.998308 -1.99959 0.0581447
-0.727374 -1.99261 0.686241
0 -1.99939 0
-0.54951 -1.999 0.835487
0 -1.99871 0
0 -1.99012 0
0.230616 -1.99894 -0.973045
0 -1.99966 0
0.727374 -1.99991 0.686242
-0.342021 -1.97238 0.939692
0.448799 -1.99994 -0.893633
-0.230616 -1.99991 -0.973045
0 -1.99872 0
0.642788 -1.99982 -0.766044
0 -1.99656 0
0 2 0
0.34202 -1.99999 0.939693
-0.116094 -1.99831 0.993238
0 -1.9912 0
0 -1.96961 0
0 -1.99747 0
-0.95799 -1.99595 0.286803
0 -1.99699 0
-8.74228e-08 -1.99982 -1
-0.642788 -1.99782 -0.766044
0 -1.99835 0
0 -1.99869 0
-0.918216 -1.99853 -0.39608
0 -2 0
0 -1.99422 0
-0.866026 -1.9951 0.499999
-0.998308 -1.99987 0.0581447
0 -1.99528 0
0 -1.9973 0
0 -1.9995 0
2 30 40 0.0660586 0.0726706 MINIMUM SADDLE 0 0.00661206 1 0 1 1 1 4243 102133 O
2 8 28 0.000996808 0.00104289 SADDLE SADDLE 1 4.6087e-05 3040 0 3040 1 1 82391 209681 O
2 6 5 0.000836857 0.0014677 MINIMUM SADDLE 2 0.000630843 1 0 1 1 1 23058 223597 O
2 11 2 0.000494715 0.00104956 MINIMUM SADDLE 3 0.000554848 6 0 6 1 1 24520 250367 O
2 2 55 0.00104956 0.0014352 SADDLE SADDLE 4 0.000385639 21336 0 21336 1 1 250367 236640 O
2 18 15 0.00183747 0.00212229 SADDLE SADDLE 5 0.000284823 6858 0 6858 1 1 53377 96921 O
2 35 53 0.00842777 0.0114859 SADDLE SADDLE 6 0.00305811 8126 0 6023 0.741201 0.741201 60854 243971 O
2 21 15 0.0012096 0.00212229 MINIMUM SADDLE 7 0.000912694 2 0 2 1 1 82020 96921 O
2 3 0 0.000846147 0.000930591 SADDLE SADDLE 8 8.44444e-05 6083 0 6083 1 1 93217 99807 O
2 20 43 0.00450394 0.00740663 MINIMUM SADDLE 9 0.00290269 1 0 1 1 1 94947 175545 O
2 0 8 0.000930591 0.000996808 SADDLE SADDLE 10 6.62165e-05 4637 0 4637 1 1 99807 82391 O
2 40 36 0.0726706 9.5335 SADDLE MAXIMUM 11 9.46083 52750 0 30256 0.573573 0.573573 102133 224342 O
2 33 25 0.00329155 0.00331709 SADDLE SADDLE 12 2.55455e-05 326 0 299 0.917178 0.917178 141036 247274 O
2 43 9 0.00740663 0.00765663 SADDLE SADDLE 13 0.000249999 968 0 804 0.830579 0.830579 175545 228546 O
2 26 40 0.0237798 0.0726706 SADDLE SADDLE 14 0.0488908 14464 0 7571 0.523438 0.523438 189336 102133 O
2 1 33 0.00236422 0.00329155 SADDLE SADDLE 15 0.000927326 13936 0 12993 0.932334 0.932334 222875 141036 O
2 44 47 0.000668421 0.00336462 MINIMUM SADDLE 16 0.0026962 55 0 55 1 1 206454 217432 O
2 14 12 0.00414109 0.0048529 MINIMUM SADDLE 17 0.000711809 18 5 17 0.944444 0.944444 206781 239339 B-LOC
2 15 1 0.00212229 0.00236422 SADDLE SADDLE 18 0.000241928 4604 0 4601 0.999348 0.999348 96921 222875 O
2 9 35 0.00765663 0.00842777 SADDLE SADDLE 19 0.000771137 2862 0 2295 0.801887 0.801887 228546 60854 O
2 7 0 0.000429657 0.000930591 MINIMUM SADDLE 20 0.000500934 21 0 21 1 1 208651 99807 O
2 42 53 0.00988033 0.0114859 MINIMUM SADDLE 21 0.00160555 2 7 2 1 1 209306 243971 B-MISC
2 28 2 0.00104289 0.00104956 SADDLE SADDLE 22 6.66874e-06 454 0 454 1 1 209681 250367 O
2 31 55 0.000377107 0.0014352 MINIMUM SADDLE 23 0.0010581 3 0 3 1 1 209903 236640 O
2 48 41 0.00374485 0.00626765 MINIMUM SADDLE 24 0.0025228 42 5 42 1 1 210826 246565 B-LOC
2 55 5 0.0014352 0.0014677 SADDLE SADDLE 25 3.24969e-05 1358 0 1358 1 1 236640 223597 O
2 27 25 0.00276624 0.00331709 MINIMUM SADDLE 26 0.000550857 5 2 4 0.8 0.8 218118 247274 I-PER
2 47 46 0.00336462 0.0041545 SADDLE SADDLE 27 0.000789886 8612 0 7739 0.89863 0.89863 217432 249587 O
2 45 54 0.00541778 0.00666206 MINIMUM SADDLE 28 0.00124428 1 1 1 1 1 220432 246707 B-PER
2 13 1 0.00186294 0.00236422 MINIMUM SADDLE 29 0.000501287 129 5 129 1 1 223006 222875 B-LOC
2 22 39 0.0178562 0.0211965 MINIMUM SADDLE 30 0.0033403 5 8 5 1 1 223089 236444 I-MISC
2 29 28 0.00045039 0.00104289 MINIMUM SADDLE 31 0.000592504 10 0 10 1 1 223251 209681 O
2 5 16 0.0014677 0.00162517 SADDLE SADDLE 32 0.00015747 6144 0 6144 1 1 223597 238592 O
2 24 35 0.00260776 0.00842777 MINIMUM SADDLE 33 0.00582001 3 7 2 0.666667 0.666667 225414 60854 B-MISC
2 23 18 0.00169015 0.00183747 SADDLE SADDLE 34 0.000147321 4386 0 4386 1 1 225945 53377 O
2 46 12 0.0041545 0.0048529 SADDLE SADDLE 35 0.000698394 5930 0 5245 0.884486 0.884486 249587 239339 O
2 50 39 0.0140024 0.0211965 SADDLE SADDLE 36 0.00719409 7832 0 4686 0.598315 0.598315 228800 236444 O
2 19 18 0.000866157 0.00183747 MINIMUM SADDLE 37 0.000971315 28 0 28 1 1 230852 53377 O
2 51 50 0.0119186 0.0140024 MINIMUM SADDLE 38 0.00208378 2 7 2 1 1 231219 228800 B-MISC
2 52 46 0.000536775 0.0041545 MINIMUM SADDLE 39 0.00361773 6 0 3 0.5 0.5 232407 249587 O
2 34 23 0.000659725 0.00169015 MINIMUM SADDLE 40 0.00103043 14 0 14 1 1 234744 225945 O
2 39 26 0.0211965 0.0237798 SADDLE SADDLE 41 0.00258328 1952 0 1059 0.54252 0.54252 236444 189336 O
2 16 23 0.00162517 0.00169015 SADDLE SADDLE 42 6.49805e-05 2180 0 2180 1 1 238592 225945 O
2 12 41 0.0048529 0.00626765 SADDLE SADDLE 43 0.00141475 9034 0 7778 0.86097 0.86097 239339 246565 O
2 4 9 0.00703454 0.00765663 MINIMUM SADDLE 44 0.000622097 2 7 2 1 1 240100 228546 B-MISC
2 38 26 0.00425588 0.0237798 MINIMUM SADDLE 45 0.0195239 39 5 30 0.769231 0.769231 240515 189336 B-LOC
2 17 16 0.000710354 0.00162517 MINIMUM SADDLE 46 0.000914816 9 0 9 1 1 242837 238592 O
2 53 50 0.0114859 0.0140024 SADDLE SADDLE 47 0.00251654 4420 0 2990 0.676471 0.676471 243971 228800 O
2 41 54 0.00626765 0.00666206 SADDLE SADDLE 48 0.000394409 1929 0 1621 0.840332 0.840332 246565 246707 O
2 54 43 0.00666206 0.00740663 SADDLE SADDLE 49 0.000744571 3299 0 2743 0.831464 0.831464 246707 175545 O
2 25 47 0.00331709 0.00336462 SADDLE SADDLE 50 4.75247e-05 617 0 562 0.910859 0.910859 247274 217432 O
2 10 8 0.000299171 0.000996808 MINIMUM SADDLE 51 0.000697637 192 0 192 1 1 247367 82391 O
2 32 33 0.000455157 0.00329155 MINIMUM SADDLE 52 0.00283639 2 0 2 1 1 248017 141036 O
2 37 3 0.000265682 0.000846147 MINIMUM SADDLE 53 0.000580465 455 0 455 1 1 248480 93217 O
2 49 3 0.000233265 0.000846147 MINIMUM SADDLE 54 0.000612882 55792 0 55792 1 1 248742 93217 O
