OFF
18 17 0
0 -1.41421 0
0.781832 -1.41421 -0.62349
0 -1.41421 0
0 -1.41421 0
0 -1.41421 0
-0.613604 -1.41421 1.27416
0 1.41421 0
0 -1.41421 0
0.433884 -1.41421 0.900969
-0.974928 -1.41421 0.222521
-0.433884 -1.41421 0.900969
-0.781832 -1.41421 -0.62349
-0.433884 -1.41421 0.900969
0 -1.41421 0
-8.74228e-08 -1.41421 -1
0 -1.41421 0
0 -1.41421 0
0.974928 -1.41421 0.222521
2 14 15 -0 4.29153e-06 MINIMUM SADDLE 0 4.29153e-06 157 3 154 0.980892 0.980892 2802 19002 cat
2 16 15 4.17232e-06 4.29153e-06 SADDLE SADDLE 1 1.19209e-07 25 4 13 0.52 0.52 36779 19002 deer
2 11 7 3.57628e-07 4.88757e-06 MINIMUM SADDLE 2 4.52994e-06 162 2 162 1 1 10651 46680 bird
2 15 0 4.29153e-06 4.29153e-06 SADDLE SADDLE 3 0 6 0 4 0.666667 0.666667 19002 47796 airplane
2 10 12 8.34465e-07 9.05987e-06 MINIMUM SADDLE 4 8.2254e-06 253 9 253 1 1 23585 40995 truck
2 2 4 5.12599e-06 7.15253e-06 SADDLE SADDLE 5 2.02655e-06 757 6 185 0.244386 0.244386 3500 28869 frog
2 3 6 9.65591e-06 15.413 SADDLE MAXIMUM 6 15.413 56657 1 5881 0.1038 0.1038 10123 53115 automobile
2 13 16 -0 4.17232e-06 MINIMUM SADDLE 7 4.17232e-06 248 0 229 0.923387 0.923387 28960 36779 airplane
2 7 2 4.88757e-06 5.12599e-06 SADDLE SADDLE 8 2.38417e-07 37 0 17 0.459459 0.459459 46680 3500 airplane
2 9 16 2.38419e-07 4.17232e-06 MINIMUM SADDLE 9 3.9339e-06 211 4 210 0.995261 0.995261 31318 36779 deer
2 0 7 4.29153e-06 4.88757e-06 SADDLE SADDLE 10 5.96044e-07 140 4 53 0.378571 0.378571 47796 46680 deer
2 5 12 1.07288e-06 9.05987e-06 MINIMUM SADDLE 11 7.98698e-06 105 1 105 1 1 37832 40995 automobile
2 4 3 7.15253e-06 9.65591e-06 SADDLE SADDLE 12 2.50337e-06 798 4 135 0.169173 0.169173 28869 10123 deer
2 12 3 9.05987e-06 9.65591e-06 SADDLE SADDLE 13 5.96041e-07 53 9 30 0.566038 0.566038 40995 10123 truck
2 17 4 2.38419e-07 7.15253e-06 MINIMUM SADDLE 14 6.91411e-06 142 8 138 0.971831 0.971831 42608 28869 ship
2 8 2 1.3113e-06 5.12599e-06 MINIMUM SADDLE 15 3.81468e-06 129 5 73 0.565891 0.565891 49208 3500 dog
2 1 0 3.57628e-07 4.29153e-06 MINIMUM SADDLE 16 3.9339e-06 120 7 120 1 1 54256 47796 horse
