OFF
20 19 0
0.92388 -1.41421 0.382683
-0.541196 -1.41421 1.30656
0 -1.4132 0
0 -1.41229 0
0 -1.41421 0
-0.923879 -1.41421 0.382684
-0.92388 -1.41421 -0.382683
-0.382683 -1.41421 0.92388
-0.382683 -1.41421 -0.92388
0 -1.41227 0
0 1.41421 0
0 -1.4127 0
0 -1.41239 0
0 -1.41192 0
0 -1.4111 0
0.382683 -1.41421 -0.92388
-0.382683 -1.41286 0.92388
0.382683 -1.41421 0.92388
0 -1.41186 0
0.92388 -1.41421 -0.382684
2 13 18 0.0124931 0.0128372 SADDLE SADDLE 0 0.000344063 59 2 12 0.20339 0.20339 1155 23919 bird
2 0 12 -0 0.00991774 MINIMUM SADDLE 1 0.00991774 4627 3 4627 1 1 2802 53500 cat
2 4 2 -0 0.00552923 MINIMUM SADDLE 2 0.00552923 4980 0 4980 1 1 4930 7213 airplane
2 5 14 1.07288e-06 0.0169758 MINIMUM SADDLE 3 0.0169747 5428 9 5428 1 1 7075 41842 truck
2 2 11 0.00552923 0.00823826 SADDLE SADDLE 4 0.00270903 305 0 153 0.501639 0.501639 7213 15357 airplane
2 16 13 0.00738971 0.0124931 SADDLE SADDLE 5 0.00510338 383 5 236 0.616188 0.616188 13972 1155 dog
2 11 12 0.00823826 0.00991774 SADDLE SADDLE 6 0.00167948 189 0 69 0.365079 0.365079 15357 53500 airplane
2 7 16 5.96046e-07 0.00738971 MINIMUM SADDLE 7 0.00738912 5266 6 5265 0.99981 0.99981 18887 13972 frog
2 19 3 -0 0.0104761 MINIMUM SADDLE 8 0.0104761 5185 4 5185 1 1 23815 41787 deer
2 18 14 0.0128372 0.0169758 SADDLE SADDLE 9 0.00413866 667 3 130 0.194903 0.194903 23919 41842 cat
2 8 9 9.53674e-07 0.0105767 MINIMUM SADDLE 10 0.0105758 5454 1 5454 1 1 34322 42787 automobile
2 3 9 0.0104761 0.0105767 SADDLE SADDLE 11 0.00010062 13 2 4 0.307692 0.307692 41787 42787 bird
2 14 10 0.0169758 15.413 SADDLE MAXIMUM 12 15.396 6826 3 1131 0.16569 0.16569 41842 53115 cat
2 15 11 2.38419e-07 0.00823826 MINIMUM SADDLE 13 0.00823802 5399 8 5399 1 1 42608 15357 ship
2 9 13 0.0105767 0.0124931 SADDLE SADDLE 14 0.00191635 335 3 74 0.220896 0.220896 42787 1155 cat
2 6 18 1.19209e-07 0.0128372 MINIMUM SADDLE 15 0.012837 5336 7 5335 0.999813 0.999813 43878 23919 horse
2 12 3 0.00991774 0.0104761 SADDLE SADDLE 16 0.000558376 80 3 28 0.35 0.35 53500 41787 cat
2 1 16 8.34465e-07 0.00738971 MINIMUM SADDLE 17 0.00738888 4662 5 4662 1 1 54616 13972 dog
2 17 2 -0 0.00552923 MINIMUM SADDLE 18 0.00552923 4806 2 4806 1 1 56747 7213 bird
