OFF
32 31 0
1.14412 -1.41421 -0.831254
1 -1.41421 -4.37114e-08
0 -1.41421 0
0 -1.41421 0
-0.309017 -1.41421 -0.951057
0 -1.41421 0
-0.309016 -1.41421 0.951057
0.809017 -1.41421 0.587785
-0.809017 -1.41421 0.587785
0.587785 -1.41421 -0.809017
-0.809017 -1.41421 -0.587785
-0.309016 -1.41421 0.951057
-1 -1.41421 1.19249e-08
0.809017 -1.41421 0.587785
0 -1.41421 0
0 1.41421 0
-0.437015 -1.41421 1.345
0 -1.41421 0
-0.809017 -1.41421 -0.587785
0 -1.41421 0
0.309017 -1.41421 0.951057
0 -1.41421 0
1 -1.41421 -4.37114e-08
0 -1.41421 0
0 -1.41421 0
1.14412 -1.41421 0.831254
0.437016 -1.41421 -1.345
0 -1.41421 0
0.587785 -1.41421 -0.809017
-1.14412 -1.41421 -0.831254
0.587785 -1.41421 -0.809017
1.41421 -1.41421 -6.18172e-08
2 0 9 1.19209e-07 3.45706e-06 MINIMUM SADDLE 0 3.33785e-06 21 7 21 1 1 1178 26935 horse
2 4 3 -0 4.29153e-06 MINIMUM SADDLE 1 4.29153e-06 157 3 154 0.980892 0.980892 2802 19002 cat
2 2 3 4.17232e-06 4.29153e-06 SADDLE SADDLE 2 1.19209e-07 25 4 13 0.52 0.52 36779 19002 deer
2 10 18 3.57628e-07 3.57627e-06 MINIMUM SADDLE 3 3.21864e-06 64 2 64 1 1 10651 15761 bird
2 25 7 3.57628e-07 4.64915e-06 MINIMUM SADDLE 4 4.29152e-06 52 2 52 1 1 12715 16809 bird
2 3 23 4.29153e-06 4.29153e-06 SADDLE SADDLE 5 0 6 0 4 0.666667 0.666667 19002 47796 airplane
2 11 6 8.34465e-07 9.05987e-06 MINIMUM SADDLE 6 8.2254e-06 253 9 253 1 1 23585 40995 truck
2 24 17 5.84124e-06 7.15253e-06 SADDLE SADDLE 7 1.31129e-06 473 6 99 0.209302 0.209302 6286 28869 frog
2 18 14 3.57627e-06 4.88757e-06 SADDLE SADDLE 8 1.3113e-06 61 2 61 1 1 15761 46680 bird
2 27 15 1.01327e-05 15.413 SADDLE MAXIMUM 9 15.413 56386 1 5843 0.103625 0.103625 52132 53115 automobile
2 5 2 -0 4.17232e-06 MINIMUM SADDLE 10 4.17232e-06 248 0 229 0.923387 0.923387 28960 36779 airplane
2 19 27 9.65591e-06 1.01327e-05 SADDLE SADDLE 11 4.76833e-07 236 9 39 0.165254 0.165254 10123 52132 truck
2 14 21 4.88757e-06 5.12599e-06 SADDLE SADDLE 12 2.38417e-07 37 0 17 0.459459 0.459459 46680 3500 airplane
2 12 2 2.38419e-07 4.17232e-06 MINIMUM SADDLE 13 3.9339e-06 211 4 210 0.995261 0.995261 31318 36779 deer
2 8 27 7.15256e-07 1.01327e-05 MINIMUM SADDLE 14 9.41748e-06 35 1 35 1 1 33513 52132 automobile
2 23 14 4.29153e-06 4.88757e-06 SADDLE SADDLE 15 5.96044e-07 140 4 53 0.378571 0.378571 47796 46680 deer
2 9 30 3.45706e-06 3.45706e-06 SADDLE SADDLE 16 0 4 7 4 1 1 26935 51133 horse
2 16 6 1.07288e-06 9.05987e-06 MINIMUM SADDLE 17 7.98698e-06 105 1 105 1 1 37832 40995 automobile
2 17 19 7.15253e-06 9.65591e-06 SADDLE SADDLE 18 2.50337e-06 798 4 135 0.169173 0.169173 28869 10123 deer
2 21 24 5.12599e-06 5.84124e-06 SADDLE SADDLE 19 7.15252e-07 214 4 54 0.252336 0.252336 3500 6286 deer
2 6 19 9.05987e-06 9.65591e-06 SADDLE SADDLE 20 5.96041e-07 53 9 30 0.566038 0.566038 40995 10123 truck
2 1 22 2.38419e-07 5.84124e-06 MINIMUM SADDLE 21 5.60282e-06 83 8 82 0.987952 0.987952 42608 20697 ship
2 26 30 1.19209e-07 3.45706e-06 MINIMUM SADDLE 22 3.33785e-06 38 7 38 1 1 43878 51133 horse
2 20 24 8.34465e-07 5.84124e-06 MINIMUM SADDLE 23 5.00677e-06 70 6 70 1 1 44210 6286 frog
2 13 7 1.3113e-06 4.64915e-06 MINIMUM SADDLE 24 3.33785e-06 63 5 61 0.968254 0.968254 49208 16809 dog
2 7 21 4.64915e-06 5.12599e-06 SADDLE SADDLE 25 4.76835e-07 14 5 12 0.857143 0.857143 16809 3500 dog
2 31 22 1.07288e-06 5.84124e-06 MINIMUM SADDLE 26 4.76835e-06 37 8 35 0.945946 0.945946 53952 20697 ship
2 28 9 3.57628e-07 3.45706e-06 MINIMUM SADDLE 27 3.09944e-06 34 7 34 1 1 54256 26935 horse
2 29 18 3.57628e-07 3.57627e-06 MINIMUM SADDLE 28 3.21864e-06 37 2 37 1 1 54492 15761 bird
2 22 17 5.84124e-06 7.15253e-06 SADDLE SADDLE 29 1.31129e-06 22 8 21 0.954545 0.954545 20697 28869 ship
2 30 23 3.45706e-06 4.29153e-06 SADDLE SADDLE 30 8.34462e-07 23 7 23 1 1 51133 47796 horse
